<svg viewBox="0 0 50 50" xml:space="preserve" xmlns="http://www.w3.org/2000/svg" enable-background="new 0 0 50 50"><path d="M22 1h-2C10.075 1 2 9.075 2 19v30h20v-6h18V32h7.741l-7.743-13.273C39.851 8.927 31.834 1 22 1zm16 29v11H20v6H4V19c0-8.822 7.178-16 16-16h2c8.822 0 16 7.178 16 16v.271L44.259 30H38z" fill="#fddf00" class="fill-000000"></path><path d="m25.293 20.707 1.414-1.414L21 13.586l-5.707 5.707 1.414 1.414L20 17.414V36h2V17.414z" fill="#fddf00" class="fill-000000"></path><path d="M21 5C13.832 5 8 10.832 8 18c0 5.488 3.483 10.41 8.666 12.245l.668-1.885A11.014 11.014 0 0 1 10 18c0-6.065 4.935-11 11-11s11 4.935 11 11c0 4.644-2.947 8.807-7.334 10.36l.668 1.885C30.517 28.41 34 23.488 34 18c0-7.168-5.832-13-13-13z" fill="#fddf00" class="fill-000000"></path></svg>