<svg viewBox="0 0 512 512" xmlns="http://www.w3.org/2000/svg"><g data-name="/ FILLED_OUTLINE"><path d="M280 328h-40a32 32 0 0 0-32 32v88h40v-80h32Z" fill="#e092ac" class="fill-006095"></path><path d="M248 448v-88a32 32 0 0 1 32-32h16a16 16 0 0 0 16-16v-16h88v56a16 16 0 0 1-16 16h-80a16 16 0 0 0-16 16v64Z" fill="#e092ac" class="fill-0071af"></path><path d="M248 384h40v64h-40z" fill="#ffffff" class="fill-fda5a3"></path><path d="M208 384h40v64h-40z" fill="#ffffff" class="fill-ec9090"></path><path d="M188 448h68v20a20 20 0 0 1-20 20h-48a20 20 0 0 1-20-20 20 20 0 0 1 20-20Z" fill="#ffffff" class="fill-353535"></path><path d="M236 448a20 20 0 0 0 0 40h32a20 20 0 0 0 20-20v-20Z" fill="#ffffff" class="fill-353535"></path><path d="M248 488h20a20 20 0 0 0 20-20v-20a40 40 0 0 1-40 40Z" fill="#ffffff" class="fill-2d2d2d"></path><path d="M216 488h40v-40a40 40 0 0 1-40 40Z" fill="#ffffff" class="fill-353535"></path><path d="M216 488h20a20 20 0 0 0 20-20v-20a40 40 0 0 1-40 40Z" fill="#ffffff" class="fill-2d2d2d"></path><path d="M408 464h-16v-64h-16v64h-16a24.027 24.027 0 0 0-24 24v8h16v-8a8.01 8.01 0 0 1 8-8h16v16h16v-16h16a8.01 8.01 0 0 1 8 8v8h16v-8a24.027 24.027 0 0 0-24-24ZM296 264h-56v32h72v-16a16 16 0 0 0-16-16Z" fill="#ffffff" class="fill-bebebe"></path><path d="M216 216a16 16 0 0 0 16 16h96v-32h-96a16 16 0 0 0-16 16Z" fill="#ffffff" class="fill-ec9090"></path><path d="M419.27 184.013c-10.837.385-19.27 9.622-19.27 20.466V352a16 16 0 0 1-16 16h-44a20 20 0 0 0-20 20 20 20 0 0 0 20 20h68a32 32 0 0 0 32-32V204a20 20 0 0 0-20.73-19.987Z" fill="#ffffff" class="fill-6e6e6e"></path><path d="M344 160v-5.167a16 16 0 0 0-10.058-14.856l-9.827-3.93A32 32 0 0 1 304 106.334V80h80v80Z" fill="#ffffff" class="fill-fda5a3"></path><path d="M352 160h-8l-22.627 22.627A32 32 0 0 0 312 205.255V296h88v-92.669a48 48 0 0 0-5.067-21.466L384 160Z" fill="#ffffff" class="fill-00b378"></path><path d="M32 72h16v232H32z" fill="#fffafa" class="fill-dfdfdf"></path><path transform="rotate(-44.998 80 80)" d="M-10.51 72h181.019v16H-10.51z" fill="#fffafa" class="fill-dfdfdf"></path><path d="M120 40h26.745a32 32 0 0 1 22.628 9.373L184 64l-40 40-14.627-14.627A32 32 0 0 1 120 66.745Z" fill="#ffffff" class="fill-338dbf"></path><path transform="rotate(-45 120 40)" d="M112 17.373h16v45.255h-16z" fill="#ffffff" class="fill-338dbf"></path><path transform="rotate(-45 192 112)" d="M184 100.686h16v22.627h-16z" fill="#ffffff" class="fill-cbe2ef"></path><path d="M200 80h24v16h-24zM160 120h16v24h-16z" fill="#ffffff" class="fill-cbe2ef"></path><path d="M360 208v8a16 16 0 0 1-16 16h-48a16 16 0 0 0-16 16 16 16 0 0 0 16 16h72a32 32 0 0 0 32-32v-24Z" fill="#ffffff" class="fill-fda5a3"></path><path d="M344 40h-40v40h80a40 40 0 0 0-40-40Z" fill="#ffffff" class="fill-d27676"></path><path d="M234.573 188.862A16 16 0 0 0 218.883 176H107.517a16 16 0 0 0-15.69 19.138L112 296h144Z" fill="#ffffff" class="fill-bebebe"></path><path d="M384 80h-16v32h16a16 16 0 0 0 16-16 16 16 0 0 0-16-16Z" fill="#ffffff" class="fill-ec9090"></path><circle cx="168" cy="232" r="16" fill="#ffffff" class="fill-f4f4f4"></circle><path d="M248 448h40v-40a40 40 0 0 1-40 40Z" fill="#ffffff" class="fill-d78d8b"></path><path d="M208 448h40v-40a40 40 0 0 1-40 40Z" fill="#ffffff" class="fill-c97b7b"></path><path d="M144 288h110.4l-11.776-58.882A111.976 111.976 0 0 1 144 288Z" fill="#f4abc4" class="fill-a2a2a2"></path><path d="M344 288h56v-56a56 56 0 0 1-56 56Z" fill="#f4abc4" class="fill-009966"></path><path d="M360 160h24v-24a24 24 0 0 1-24 24Z" fill="#ffffff" class="fill-d78d8b"></path><path d="M344 80h40a39.8 39.8 0 0 0-5.365-20A39.974 39.974 0 0 1 344 80Z" fill="#ffffff" class="fill-b36565"></path><path d="M336 368h48a16 16 0 0 0 16-16v-48a64 64 0 0 1-64 64Z" fill="#e092ac" class="fill-006095"></path><path d="M334.257 407.153A19.988 19.988 0 0 0 340 408h68a32 32 0 0 0 32-32v-88a120.014 120.014 0 0 1-105.743 119.153Z" fill="#f4abc4" class="fill-5e5e5e"></path><path d="M376 408v16a16 16 0 0 1 16-16Z" fill="#f4abc4" class="fill-a2a2a2"></path><path d="M496 288H16v16h16v192h16V304h416v192h16V304h16v-16z" fill="#fffafa" class="fill-dfdfdf"></path><path d="M344 264h24a32 32 0 0 0 32-32v-24a56 56 0 0 1-56 56Z" fill="#ffffff" class="fill-d78d8b"></path><path d="M280 232h32v-32a32 32 0 0 1-32 32Z" fill="#ffffff" class="fill-c97b7b"></path><path d="M134.934 94.934 144 104l40-40-9.066-9.066a88.36 88.36 0 0 1-40 40Z" fill="#ffffff" class="fill-2c78a3"></path><path d="M288 288h24v-8a15.91 15.91 0 0 0-1.696-7.14A24.002 24.002 0 0 1 288 288Z" fill="#f4abc4" class="fill-a2a2a2"></path><path d="M448 288v-84a27.981 27.981 0 0 0-41.677-24.419 46.353 46.353 0 0 0-11.98-20.552 7.945 7.945 0 0 1-2.343-5.656v-34.75a23.994 23.994 0 0 0-.489-45.413A48.067 48.067 0 0 0 344 32h-48v74.335a39.808 39.808 0 0 0 25.145 37.139l9.826 3.93a7.962 7.962 0 0 1 5.029 7.429v1.854l-20.285 20.284A39.852 39.852 0 0 0 306.244 192h-62.886l-.941-4.706A24.065 24.065 0 0 0 218.883 168H107.517a24 24 0 0 0-23.534 28.707L102.24 288H48V123.314l64-64v7.431a39.744 39.744 0 0 0 11.716 28.285L144 115.313 195.314 64 175.03 43.717A39.734 39.734 0 0 0 146.745 32h-7.431l10.343-10.343-11.314-11.314L120 28.686l-10.343-10.343-11.314 11.314L108.686 40 48 100.686V72H32v44.686l-21.657 21.657 11.314 11.314L32 139.314V288H16v16h16v192h16V304h256v8a8.01 8.01 0 0 1-8 8h-56a40.046 40.046 0 0 0-40 40v80h-12a28 28 0 0 0 0 56h80a28.031 28.031 0 0 0 28-28v-84a8.01 8.01 0 0 1 8-8h10.707A27.991 27.991 0 0 0 340 416h36v48h-16a24.027 24.027 0 0 0-24 24v8h16v-8a8.01 8.01 0 0 1 8-8h16v16h16v-16h16a8.01 8.01 0 0 1 8 8v8h16v-8a24.027 24.027 0 0 0-24-24h-16v-48h16a40.046 40.046 0 0 0 40-40v-72h16v192h16V304h16v-16ZM128 48h18.745a23.838 23.838 0 0 1 16.97 7.03l8.971 8.97L144 92.687l-8.97-8.97A23.848 23.848 0 0 1 128 66.745Zm82.707 432H188a12 12 0 0 1 0-24h22.707a27.95 27.95 0 0 0 0 24ZM312 48h32a32.057 32.057 0 0 1 30.987 24H312Zm15.086 80.618A23.885 23.885 0 0 1 312 106.335V88h72a8 8 0 0 1 0 16h-16v16h8v32h-24.181a23.857 23.857 0 0 0-14.905-19.451ZM320 205.255a23.845 23.845 0 0 1 7.03-16.97L347.312 168h33.663a24.34 24.34 0 0 0 2.053 2.343A30.43 30.43 0 0 1 392 192v24h-24v-16h-16v16a8.01 8.01 0 0 1-8 8h-24ZM344 240a23.943 23.943 0 0 0 17.87-8H392a24.027 24.027 0 0 1-24 24h-72a8 8 0 0 1 0-16Zm-25.376 32H368a39.79 39.79 0 0 0 24-8.022V288h-72v-8a23.881 23.881 0 0 0-1.376-8Zm-200.065 16-18.887-94.432a8 8 0 0 1 7.845-9.568h111.366a8.021 8.021 0 0 1 7.845 6.432L246.24 288Zm128-80H304v16h-54.242Zm6.4 32h20.417a23.94 23.94 0 0 0 0 16h-17.218Zm9.6 48-3.2-16H296a8.01 8.01 0 0 1 8 8v8ZM216 360a24.027 24.027 0 0 1 24-24h8.022A39.79 39.79 0 0 0 240 360v16h-24Zm0 32h24v48h-24Zm64 76a12.013 12.013 0 0 1-12 12h-32a12 12 0 0 1 0-24h44Zm0-28h-24v-48h24Zm24-80a24.038 24.038 0 0 0-22.624 16H256v-16a24.027 24.027 0 0 1 24-24h16a24.027 24.027 0 0 0 24-24v-8h72v48a8.01 8.01 0 0 1-8 8Zm128 16a24.027 24.027 0 0 1-24 24h-68a12 12 0 0 1 0-24h44a24.027 24.027 0 0 0 24-24v-48h24Zm0-88h-24v-84a12 12 0 0 1 24 0Z" fill="#f4abc4" class="fill-000000"></path><path d="m178.343 109.657 11.314-11.314 16 16-11.314 11.313zM200 80h24v16h-24zM160 120h16v24h-16zM168 208a24 24 0 1 0 24 24 24.027 24.027 0 0 0-24-24Zm0 32a8 8 0 1 1 8-8 8.01 8.01 0 0 1-8 8Z" fill="#f4abc4" class="fill-000000"></path></g></svg>