<svg viewBox="0 0 512 512" xml:space="preserve" xmlns="http://www.w3.org/2000/svg" enable-background="new 0 0 512 512"><path d="M68.759 226.537H52.331v16.445h16.428v-16.445zm390.91 0h-16.432v16.445h16.431v-16.445zm-20.131-7.396h7.683a190.528 190.528 0 0 0-27.132-84.814c-16.161-26.607-38.65-49.006-65.364-65.09H157.287c-26.711 16.084-49.2 38.482-65.361 65.09-15.214 25.074-24.833 53.938-27.15 84.814h7.683a3.695 3.695 0 0 1 3.699 3.698v23.812a3.694 3.694 0 0 1-3.699 3.697h-7.5c2.688 31.178 12.838 60.252 28.652 85.355 16.807 26.668 39.97 48.916 67.375 64.58h190.043a196.18 196.18 0 0 0 22.022-14.702H235.906a3.703 3.703 0 0 1-3.695-3.698 3.703 3.703 0 0 1 3.695-3.697h146.15a193.242 193.242 0 0 0 36.333-42.482 190.687 190.687 0 0 0 28.666-85.355h-7.518a3.691 3.691 0 0 1-3.682-3.697V222.84a3.694 3.694 0 0 1 3.683-3.699zm-219.702-24.864c-.779 0-1.548.27-2.148.811l-.137.121a3.236 3.236 0 0 0 0 4.54c.632.631 1.46.962 2.285.962a3.17 3.17 0 0 0 2.256-.962c.632-.603.934-1.443.934-2.256 0-.812-.316-1.653-.934-2.284a3.262 3.262 0 0 0-2.256-.932zm-7.215-4.54a10.583 10.583 0 0 1 7.216-2.856c2.692 0 5.397 1.053 7.472 3.097 2.092 2.074 3.113 4.81 3.113 7.516s-1.039 5.413-3.113 7.486c-2.042 2.074-4.766 3.097-7.472 3.097-2.72 0-5.44-1.022-7.5-3.097-2.06-2.073-3.113-4.78-3.113-7.486s1.053-5.411 3.113-7.485l.284-.272zm-10.041 41.67a3.216 3.216 0 0 0-.947 2.255c0 .812.315 1.563.814 2.135l.133.12a3.114 3.114 0 0 0 2.257.962c.884 0 1.698-.361 2.267-.962a3.158 3.158 0 0 0 0-4.51 3.085 3.085 0 0 0-2.267-.962c-.874 0-1.685.362-2.257.962zm-8.328 2.255c0-2.916 1.19-5.563 3.099-7.486a10.54 10.54 0 0 1 7.486-3.097c2.916 0 5.563 1.173 7.486 3.097 1.937 1.924 3.127 4.57 3.127 7.486s-1.19 5.592-3.113 7.486a10.55 10.55 0 0 1-7.5 3.127c-2.917 0-5.563-1.203-7.486-3.127l-.242-.271a10.503 10.503 0 0 1-2.857-7.215zm23.3 38.423c.632.632 1.46.962 2.285.962.814 0 1.639-.33 2.256-.932a3.18 3.18 0 0 0 .934-2.285c0-.812-.316-1.623-.934-2.255a3.14 3.14 0 0 0-2.256-.932c-.825 0-1.653.301-2.285.932a3.235 3.235 0 0 0-.93 2.255c0 .813.316 1.654.93 2.255zm-5.216 5.231c-2.074-2.044-3.113-4.78-3.113-7.486s1.039-5.412 3.099-7.486a10.579 10.579 0 0 1 7.514-3.097c2.706 0 5.415 1.022 7.489 3.097s3.095 4.78 3.095 7.486-1.039 5.412-3.113 7.486a10.484 10.484 0 0 1-7.472 3.127 10.551 10.551 0 0 1-7.499-3.127zm41.402 9.772c.568.602 1.383.932 2.267.932.888 0 1.699-.33 2.256-.902a3.22 3.22 0 0 0 .947-2.284c0-.901-.348-1.714-.919-2.285a3.278 3.278 0 0 0-2.285-.933c-.884 0-1.699.361-2.267.933a3.163 3.163 0 0 0-.948 2.285c.002.871.359 1.683.949 2.254zm2.267 8.328a10.543 10.543 0 0 1-7.472-3.098c-1.938-1.953-3.124-4.568-3.124-7.485 0-2.916 1.186-5.563 3.109-7.486 1.941-1.925 4.587-3.127 7.486-3.127 2.902 0 5.548 1.202 7.471 3.097 1.941 1.954 3.127 4.601 3.127 7.517 0 2.917-1.186 5.532-3.112 7.456a10.493 10.493 0 0 1-7.485 3.126zm36.169-22.369c.828 0 1.653-.33 2.271-.932a3.244 3.244 0 0 0 .948-2.285c0-.812-.316-1.623-.934-2.255a3.206 3.206 0 0 0-2.285-.932c-.811 0-1.639.301-2.253.932a3.128 3.128 0 0 0-.947 2.255c0 .813.315 1.654.947 2.285a3.255 3.255 0 0 0 2.253.932zm7.504 4.269c-2.061 2.074-4.798 3.127-7.504 3.127s-5.426-1.053-7.485-3.127a10.508 10.508 0 0 1-3.113-7.486c0-2.706 1.053-5.412 3.113-7.456 2.06-2.104 4.779-3.127 7.485-3.127s5.43 1.022 7.504 3.097c2.073 2.074 3.095 4.78 3.095 7.486s-1.022 5.442-3.095 7.486zm9.756-41.369c.568-.602.93-1.383.93-2.285 0-.872-.361-1.684-.93-2.255a3.128 3.128 0 0 0-2.271-.962 3.27 3.27 0 0 0-2.134.813l-.137.149c-.572.571-.934 1.383-.934 2.255s.361 1.684.934 2.255a3.123 3.123 0 0 0 2.271.962c.885 0 1.698-.361 2.271-.932zm8.328-2.285c0 2.916-1.189 5.562-3.099 7.486-1.923 1.924-4.569 3.127-7.5 3.127-2.902 0-5.549-1.203-7.472-3.127-1.94-1.895-3.127-4.57-3.127-7.486s1.187-5.563 3.096-7.486l.27-.24a10.594 10.594 0 0 1 7.233-2.856c2.931 0 5.577 1.173 7.5 3.097a10.604 10.604 0 0 1 3.099 7.485zm-23.318-38.453a3.27 3.27 0 0 0-2.271-.932c-.811 0-1.639.33-2.253.932a3.192 3.192 0 0 0-.947 2.284c0 .813.315 1.653.947 2.256a3.164 3.164 0 0 0 2.253.962c.828 0 1.653-.331 2.271-.962a3.13 3.13 0 0 0 .948-2.256 3.22 3.22 0 0 0-.797-2.134l-.151-.15zm5.216-5.231.27.3c1.896 2.045 2.857 4.631 2.857 7.216a10.51 10.51 0 0 1-3.109 7.456c-2.061 2.104-4.798 3.127-7.504 3.127s-5.426-1.022-7.485-3.097c-2.061-2.044-3.113-4.78-3.113-7.486s1.053-5.411 3.113-7.485a10.594 10.594 0 0 1 7.485-3.127 10.66 10.66 0 0 1 7.486 3.096zm-41.37-9.742a3.173 3.173 0 0 0-2.285-.932c-.884 0-1.699.36-2.267.901a3.265 3.265 0 0 0-.948 2.284c0 .902.358 1.715.948 2.285a3.174 3.174 0 0 0 2.267.933c.828 0 1.579-.301 2.137-.812l.133-.121c.572-.57.934-1.383.934-2.285 0-.87-.361-1.682-.919-2.253zm-2.285-8.328a10.48 10.48 0 0 1 7.471 3.097l.105.12c1.881 1.924 3.021 4.51 3.021 7.365 0 2.947-1.186 5.593-3.112 7.518l-.271.24a10.524 10.524 0 0 1-7.215 2.855c-2.917 0-5.563-1.202-7.486-3.096a10.58 10.58 0 0 1-3.109-7.518c0-2.885 1.186-5.531 3.095-7.455l.105-.121c1.939-1.862 4.539-3.005 7.396-3.005zm20.012 41.76c-5.113-5.11-12.192-8.298-20.011-8.298-7.816 0-14.88 3.188-19.994 8.298-5.124 5.081-8.296 12.177-8.296 19.994 0 7.816 3.172 14.882 8.296 19.994 5.113 5.11 12.178 8.297 19.994 8.297 7.819 0 14.898-3.156 19.994-8.268 5.127-5.142 8.282-12.207 8.282-20.023a28.184 28.184 0 0 0-8.265-19.994zm-20.012-15.693c9.833 0 18.748 3.998 25.212 10.463 6.479 6.494 10.461 15.394 10.461 25.225s-3.982 18.73-10.447 25.195c-6.496 6.494-15.393 10.492-25.226 10.492-9.862 0-18.776-3.998-25.223-10.463-6.465-6.464-10.448-15.363-10.448-25.225 0-9.831 3.983-18.762 10.448-25.225 6.447-6.464 15.362-10.462 25.223-10.462zm48.375-12.688c-10.869-10.884-25.388-18.1-41.563-19.693-2.271-.09-4.542-.119-6.812-.119-2.285 0-4.538.029-6.809.119-16.175 1.594-30.698 8.81-41.566 19.693-12.385 12.357-20.053 29.464-20.053 48.375 0 18.881 7.668 35.988 20.053 48.375a68.288 68.288 0 0 0 41.566 19.723c2.271.061 4.524.09 6.809.09 2.27 0 4.541-.029 6.812-.09 16.098-1.594 30.546-8.75 41.384-19.543l.179-.18c12.375-12.387 20.04-29.494 20.04-48.375 0-18.911-7.651-36.017-20.04-48.375zM215.463 297.73a76.306 76.306 0 0 1-13.062-10.463c-13.712-13.709-22.205-32.68-22.205-53.605s8.493-39.866 22.205-53.605a76.94 76.94 0 0 1 13.062-10.463 198.08 198.08 0 0 0-43.114 14.279c-25.433 11.816-47.982 28.894-66.231 49.789 18.249 20.896 40.798 37.972 66.231 49.787a197.959 197.959 0 0 0 43.114 14.281zm81.07-128.136a76.79 76.79 0 0 1 13.048 10.463c13.739 13.739 22.236 32.71 22.236 53.605 0 20.926-8.497 39.896-22.219 53.605l-.21.211a77.169 77.169 0 0 1-12.87 10.252c15.077-3.126 29.526-7.937 43.129-14.281 25.45-11.815 47.985-28.892 66.234-49.787-18.235-20.896-40.784-37.973-66.234-49.789a198.008 198.008 0 0 0-43.114-14.279zm-173.91-23.061a3.658 3.658 0 0 1-4.738 2.164c-1.892-.691-2.853-2.825-2.162-4.72.06-.149 19.825-54.778 50.793-56.222 28.564-1.383 97.321 0 97.519 0 2.028.03 3.653 1.713 3.607 3.728-.046 2.045-1.73 3.669-3.759 3.608-.183 0-68.593-1.354-97.02 0-26.036 1.233-44.18 51.322-44.24 51.442zM103.532 42.297a3.687 3.687 0 0 1-3.699-3.607v6.854H85.959v-13.89h13.873v6.855a3.708 3.708 0 0 1 3.699-3.608H243.41v-8.899h25.18v8.899h139.893c2.001 0 3.636 1.623 3.682 3.608v-6.855h13.877v13.89h-13.877V38.69a3.681 3.681 0 0 1-3.682 3.607H268.59v8.869h-25.18v-8.869H103.532zm77.854 443.702c-2.046 0-3.699-1.685-3.699-3.697a3.694 3.694 0 0 1 3.699-3.698h23.616a3.693 3.693 0 0 1 3.695 3.698c0 2.013-1.653 3.697-3.695 3.697h-23.616zm-97.504 0c-2.042 0-3.695-1.685-3.695-3.697a3.693 3.693 0 0 1 3.695-3.698h51.804a3.694 3.694 0 0 1 3.699 3.698c0 2.013-1.653 3.697-3.699 3.697H83.882zm265.851-7.395a3.703 3.703 0 0 1 3.699 3.698c0 2.013-1.667 3.697-3.699 3.697H232.33c-2.028 0-3.699-1.685-3.699-3.697a3.705 3.705 0 0 1 3.699-3.698h117.403zm64.327-15.394a3.694 3.694 0 0 1 3.698 3.698 3.694 3.694 0 0 1-3.698 3.697h-51.804a3.693 3.693 0 0 1-3.695-3.697 3.693 3.693 0 0 1 3.695-3.698h51.804zm-265.852 7.395a3.706 3.706 0 0 1-3.699-3.697 3.706 3.706 0 0 1 3.699-3.698h182.164a3.694 3.694 0 0 1 3.699 3.698 3.694 3.694 0 0 1-3.699 3.697H148.208zm-48.375-42.18H243.41v-8.87h25.18v8.87h143.574v-3.218h13.877v13.86h-13.877v-3.248H268.59v8.9h-25.18v-8.9H99.833v3.248H85.959v-13.86h13.873v3.218zm156.172-270.558c2.435 0 4.857.09 7.247.331 28.308.992 55.184 7.697 79.494 18.972 27.402 12.717 51.544 31.297 70.818 54.117a3.683 3.683 0 0 1-.077 4.84c-19.257 22.76-43.385 41.311-70.741 54.027-24.311 11.274-51.172 17.979-79.479 18.972-2.391.24-4.809.36-7.261.36-2.45 0-4.868-.12-7.261-.36-28.304-.992-55.184-7.697-79.476-18.972-27.406-12.717-51.548-31.297-70.818-54.117-1.204-1.414-1.141-3.488.06-4.84 19.257-22.76 43.385-41.311 70.759-54.027 24.307-11.274 51.172-17.979 79.476-18.972 2.392-.241 4.81-.331 7.259-.331z" fill-rule="evenodd" clip-rule="evenodd" fill="#f4abc4" class="fill-000000"></path></svg>